<mxfile host="65bd71144e">
    <diagram id="FzjU4AZP8q0hrvyVT6Yh" name="Page-1">
        <mxGraphModel dx="647" dy="543" grid="1" gridSize="10" guides="1" tooltips="1" connect="1" arrows="1" fold="1" page="1" pageScale="1" pageWidth="850" pageHeight="1100" background="#ffffff" math="0" shadow="0">
            <root>
                <mxCell id="0"/>
                <mxCell id="1" parent="0"/>
                <mxCell id="2" value="" style="points=[[0.35,0,0],[0.98,0.51,0],[1,0.71,0],[0.67,1,0],[0,0.795,0],[0,0.65,0]];verticalLabelPosition=bottom;sketch=0;html=1;verticalAlign=top;aspect=fixed;align=center;pointerEvents=1;shape=mxgraph.cisco19.user;fillColor=#005073;strokeColor=none;" vertex="1" parent="1">
                    <mxGeometry x="385" y="40" width="80" height="80" as="geometry"/>
                </mxCell>
                <mxCell id="23" value="" style="endArrow=classic;startArrow=classic;html=1;rounded=1;jumpStyle=sharp;entryX=0.517;entryY=1.133;entryDx=0;entryDy=0;entryPerimeter=0;strokeColor=#000000;" edge="1" parent="1" target="2">
                    <mxGeometry width="50" height="50" relative="1" as="geometry">
                        <mxPoint x="425.21546261089975" y="300" as="sourcePoint"/>
                        <mxPoint x="450" y="200" as="targetPoint"/>
                    </mxGeometry>
                </mxCell>
                <mxCell id="26" value="" style="endArrow=classic;html=1;rounded=1;jumpStyle=sharp;strokeColor=#000000;" edge="1" parent="1">
                    <mxGeometry width="50" height="50" relative="1" as="geometry">
                        <mxPoint x="425" y="220" as="sourcePoint"/>
                        <mxPoint x="495" y="220" as="targetPoint"/>
                        <Array as="points"/>
                    </mxGeometry>
                </mxCell>
                <mxCell id="Q6xPPBx3asq65lSZLex7-43" value="" style="outlineConnect=0;dashed=0;verticalLabelPosition=bottom;verticalAlign=top;align=center;html=1;shape=mxgraph.aws3.route_53;fillColor=#F58536;gradientColor=none;strokeColor=#000000;" vertex="1" parent="1">
                    <mxGeometry x="500" y="180" width="70.5" height="85.5" as="geometry"/>
                </mxCell>
                <mxCell id="Q6xPPBx3asq65lSZLex7-45" value="" style="outlineConnect=0;dashed=0;verticalLabelPosition=bottom;verticalAlign=top;align=center;html=1;shape=mxgraph.aws3.application_load_balancer;fillColor=#F58534;gradientColor=none;strokeColor=#000000;" vertex="1" parent="1">
                    <mxGeometry x="390.25" y="410" width="69" height="72" as="geometry"/>
                </mxCell>
                <mxCell id="Q6xPPBx3asq65lSZLex7-46" value="Public subnet" style="points=[[0,0],[0.25,0],[0.5,0],[0.75,0],[1,0],[1,0.25],[1,0.5],[1,0.75],[1,1],[0.75,1],[0.5,1],[0.25,1],[0,1],[0,0.75],[0,0.5],[0,0.25]];outlineConnect=0;gradientColor=none;html=1;whiteSpace=wrap;fontSize=12;fontStyle=0;container=1;pointerEvents=0;collapsible=0;recursiveResize=0;shape=mxgraph.aws4.group;grIcon=mxgraph.aws4.group_security_group;grStroke=0;strokeColor=#248814;fillColor=#E9F3E6;verticalAlign=top;align=left;spacingLeft=30;fontColor=#248814;dashed=0;" vertex="1" parent="1">
                    <mxGeometry x="340" y="530" width="190" height="150" as="geometry"/>
                </mxCell>
                <mxCell id="Q6xPPBx3asq65lSZLex7-49" value="" style="outlineConnect=0;dashed=0;verticalLabelPosition=bottom;verticalAlign=top;align=center;html=1;shape=mxgraph.aws3.ec2;fillColor=#F58534;gradientColor=none;strokeColor=#000000;" vertex="1" parent="Q6xPPBx3asq65lSZLex7-46">
                    <mxGeometry x="9" y="28.5" width="76.5" height="93" as="geometry"/>
                </mxCell>
                <mxCell id="Q6xPPBx3asq65lSZLex7-53" value="&lt;font color=&quot;#000000&quot;&gt;EC2&lt;/font&gt;" style="text;html=1;strokeColor=none;fillColor=none;align=center;verticalAlign=middle;whiteSpace=wrap;rounded=0;" vertex="1" parent="Q6xPPBx3asq65lSZLex7-46">
                    <mxGeometry x="17.25" y="120" width="60" height="30" as="geometry"/>
                </mxCell>
                <mxCell id="Q6xPPBx3asq65lSZLex7-57" value="10.0.10.0/24" style="text;html=1;align=center;verticalAlign=middle;resizable=0;points=[];autosize=1;strokeColor=none;fillColor=none;fontColor=#000000;" vertex="1" parent="Q6xPPBx3asq65lSZLex7-46">
                    <mxGeometry x="85.5" y="20" width="90" height="30" as="geometry"/>
                </mxCell>
                <mxCell id="Q6xPPBx3asq65lSZLex7-47" value="Private subnet" style="points=[[0,0],[0.25,0],[0.5,0],[0.75,0],[1,0],[1,0.25],[1,0.5],[1,0.75],[1,1],[0.75,1],[0.5,1],[0.25,1],[0,1],[0,0.75],[0,0.5],[0,0.25]];outlineConnect=0;gradientColor=none;html=1;whiteSpace=wrap;fontSize=12;fontStyle=0;container=1;pointerEvents=0;collapsible=0;recursiveResize=0;shape=mxgraph.aws4.group;grIcon=mxgraph.aws4.group_security_group;grStroke=0;strokeColor=#147EBA;fillColor=#E6F2F8;verticalAlign=top;align=left;spacingLeft=30;fontColor=#147EBA;dashed=0;" vertex="1" parent="1">
                    <mxGeometry x="340" y="710" width="190" height="160" as="geometry"/>
                </mxCell>
                <mxCell id="Q6xPPBx3asq65lSZLex7-50" value="" style="outlineConnect=0;dashed=0;verticalLabelPosition=bottom;verticalAlign=top;align=center;html=1;shape=mxgraph.aws3.rds;fillColor=#2E73B8;gradientColor=none;strokeColor=#000000;" vertex="1" parent="Q6xPPBx3asq65lSZLex7-47">
                    <mxGeometry x="9" y="39.5" width="72" height="81" as="geometry"/>
                </mxCell>
                <mxCell id="Q6xPPBx3asq65lSZLex7-51" value="" style="verticalLabelPosition=bottom;html=1;verticalAlign=top;align=center;strokeColor=none;fillColor=#00BEF2;shape=mxgraph.azure.mysql_database;" vertex="1" parent="Q6xPPBx3asq65lSZLex7-47">
                    <mxGeometry x="100" y="70.5" width="37.5" height="50" as="geometry"/>
                </mxCell>
                <mxCell id="Q6xPPBx3asq65lSZLex7-54" value="RDS" style="text;html=1;align=center;verticalAlign=middle;resizable=0;points=[];autosize=1;strokeColor=none;fillColor=none;fontColor=#000000;" vertex="1" parent="Q6xPPBx3asq65lSZLex7-47">
                    <mxGeometry x="20" y="120.5" width="50" height="30" as="geometry"/>
                </mxCell>
                <mxCell id="Q6xPPBx3asq65lSZLex7-55" value="MySQL" style="text;html=1;align=center;verticalAlign=middle;resizable=0;points=[];autosize=1;strokeColor=none;fillColor=none;fontColor=#000000;" vertex="1" parent="Q6xPPBx3asq65lSZLex7-47">
                    <mxGeometry x="88.75" y="120.5" width="60" height="30" as="geometry"/>
                </mxCell>
                <mxCell id="Q6xPPBx3asq65lSZLex7-58" value="10.0.20.0/24" style="text;html=1;align=center;verticalAlign=middle;resizable=0;points=[];autosize=1;strokeColor=none;fillColor=none;fontColor=#000000;" vertex="1" parent="Q6xPPBx3asq65lSZLex7-47">
                    <mxGeometry x="85" y="20" width="90" height="30" as="geometry"/>
                </mxCell>
                <mxCell id="Q6xPPBx3asq65lSZLex7-61" value="" style="rounded=1;whiteSpace=wrap;html=1;labelBackgroundColor=#6666FF;strokeColor=#000000;fontColor=#000000;fillColor=none;" vertex="1" parent="1">
                    <mxGeometry x="279.75" y="340" width="290" height="550" as="geometry"/>
                </mxCell>
                <mxCell id="Q6xPPBx3asq65lSZLex7-63" value="" style="outlineConnect=0;dashed=0;verticalLabelPosition=bottom;verticalAlign=top;align=center;html=1;shape=mxgraph.aws3.virtual_private_cloud;fillColor=#F58534;gradientColor=none;labelBackgroundColor=#6666FF;strokeColor=#000000;fontColor=#000000;" vertex="1" parent="1">
                    <mxGeometry x="320" y="320" width="60" height="40" as="geometry"/>
                </mxCell>
                <mxCell id="Q6xPPBx3asq65lSZLex7-64" value="" style="outlineConnect=0;dashed=0;verticalLabelPosition=bottom;verticalAlign=top;align=center;html=1;shape=mxgraph.aws3.internet_gateway;fillColor=#F58534;gradientColor=none;labelBackgroundColor=#6666FF;strokeColor=#000000;fontColor=#000000;" vertex="1" parent="1">
                    <mxGeometry x="399.75" y="320" width="50" height="50" as="geometry"/>
                </mxCell>
                <mxCell id="Q6xPPBx3asq65lSZLex7-66" value="" style="rounded=1;whiteSpace=wrap;html=1;labelBackgroundColor=#6666FF;strokeColor=#000000;fontColor=#000000;fillColor=none;labelBorderColor=none;" vertex="1" parent="1">
                    <mxGeometry x="230" y="160" width="390" height="750" as="geometry"/>
                </mxCell>
                <mxCell id="Q6xPPBx3asq65lSZLex7-67" value="" style="outlineConnect=0;dashed=0;verticalLabelPosition=bottom;verticalAlign=top;align=center;html=1;shape=mxgraph.aws3.cloud_2;fillColor=#F58534;gradientColor=none;labelBackgroundColor=#6666FF;strokeColor=#000000;fontColor=#000000;" vertex="1" parent="1">
                    <mxGeometry x="290" y="130" width="60.25" height="60" as="geometry"/>
                </mxCell>
                <mxCell id="Q6xPPBx3asq65lSZLex7-69" value="10.0.0.0/16" style="text;html=1;strokeColor=none;fillColor=none;align=center;verticalAlign=middle;whiteSpace=wrap;rounded=0;labelBackgroundColor=#FFFFFF;fontColor=#000000;" vertex="1" parent="1">
                    <mxGeometry x="470" y="350" width="60" height="30" as="geometry"/>
                </mxCell>
                <mxCell id="Q6xPPBx3asq65lSZLex7-72" value="" style="endArrow=classic;startArrow=classic;html=1;rounded=1;strokeColor=#000000;fontColor=#000000;jumpStyle=sharp;" edge="1" parent="1">
                    <mxGeometry width="50" height="50" relative="1" as="geometry">
                        <mxPoint x="425" y="410" as="sourcePoint"/>
                        <mxPoint x="425" y="370" as="targetPoint"/>
                    </mxGeometry>
                </mxCell>
                <mxCell id="Q6xPPBx3asq65lSZLex7-74" value="" style="endArrow=classic;startArrow=classic;html=1;rounded=1;strokeColor=#000000;fontColor=#000000;jumpStyle=sharp;" edge="1" parent="1">
                    <mxGeometry width="50" height="50" relative="1" as="geometry">
                        <mxPoint x="425" y="522" as="sourcePoint"/>
                        <mxPoint x="425" y="482" as="targetPoint"/>
                    </mxGeometry>
                </mxCell>
                <mxCell id="Q6xPPBx3asq65lSZLex7-75" value="" style="endArrow=classic;startArrow=classic;html=1;rounded=1;strokeColor=#000000;fontColor=#000000;jumpStyle=sharp;" edge="1" parent="1">
                    <mxGeometry width="50" height="50" relative="1" as="geometry">
                        <mxPoint x="425" y="710" as="sourcePoint"/>
                        <mxPoint x="425" y="670" as="targetPoint"/>
                    </mxGeometry>
                </mxCell>
            </root>
        </mxGraphModel>
    </diagram>
</mxfile>